<svg xmlns="http://www.w3.org/2000/svg" viewBox="0 0 64 64" role="img" aria-label="OG ERP">
  <defs>
    <linearGradient id="bg" x1="8" y1="6" x2="56" y2="58" gradientUnits="userSpaceOnUse">
      <stop offset="0" stop-color="#0f172a" />
      <stop offset="0.5" stop-color="#1d4ed8" />
      <stop offset="1" stop-color="#06b6d4" />
    </linearGradient>
    <linearGradient id="bar" x1="16" y1="18" x2="48" y2="46" gradientUnits="userSpaceOnUse">
      <stop offset="0" stop-color="#f8fafc" />
      <stop offset="1" stop-color="#cbd5e1" />
    </linearGradient>
  </defs>
  <rect x="4" y="4" width="56" height="56" rx="16" fill="url(#bg)" />
  <path d="M18 42V28c0-1.1.9-2 2-2h4c1.1 0 2 .9 2 2v14h-8Zm10 0V20c0-1.1.9-2 2-2h4c1.1 0 2 .9 2 2v22h-8Zm10 0V24c0-1.1.9-2 2-2h4c1.1 0 2 .9 2 2v18h-8Z" fill="url(#bar)" />
  <path d="M18 46h28" stroke="#e2e8f0" stroke-width="3" stroke-linecap="round" opacity=".9" />
  <circle cx="46" cy="18" r="5" fill="#f59e0b" />
</svg>
